<svg width="122" height="40" viewBox="0 0 122 40" fill="none" xmlns="http://www.w3.org/2000/svg">
<path d="M0.00195312 36.7305L0.246094 2.35547C0.604167 1.15104 2.00391 0.548828 4.44531 0.548828C6.69141 0.548828 8.75846 0.858073 10.6465 1.47656C12.5345 2.0625 14.1133 3.07161 15.3828 4.50391C16.6849 5.90365 17.3359 7.59635 17.3359 9.58203C17.3359 11.1445 16.9453 12.6582 16.1641 14.123C15.4154 15.5879 14.4876 16.5319 13.3809 16.9551C15.4642 17.248 17.1406 18.5013 18.4102 20.7148C19.6797 22.9284 20.3145 25.5488 20.3145 28.5762C20.3145 30.627 19.5007 32.4173 17.873 33.9473C16.2454 35.4447 14.3411 36.5352 12.1602 37.2188C10.0117 37.8698 7.83073 38.1953 5.61719 38.1953C2.91536 38.1953 1.04362 37.707 0.00195312 36.7305ZM4.00586 19.6406C4.00586 21.8867 3.97331 26.3952 3.9082 33.166C4.88477 34.2728 6.13802 34.8262 7.66797 34.8262C9.6862 34.8262 11.6393 33.9961 13.5273 32.3359C15.4154 30.6432 16.3594 28.8366 16.3594 26.916C16.3594 24.5397 15.5618 22.6842 13.9668 21.3496C12.3717 20.015 10.321 19.3477 7.81445 19.3477C6.1543 19.3477 4.88477 19.4453 4.00586 19.6406ZM3.9082 16.0273L6.93555 15.9785C9.01888 15.9785 10.6139 15.3763 11.7207 14.1719C12.86 12.9349 13.4297 11.4701 13.4297 9.77734C13.4297 8.05208 12.86 6.57096 11.7207 5.33398C10.5814 4.06445 9.0026 3.42969 6.98438 3.42969C6.07292 3.42969 4.9987 3.625 3.76172 4.01562C3.82682 6.0013 3.85938 8.45898 3.85938 11.3887C3.89193 14.3184 3.9082 15.8646 3.9082 16.0273ZM24.3184 21.6426C24.3184 20.5358 24.3184 19.7057 24.3184 19.1523C24.3184 18.5664 24.3346 17.6875 24.3672 16.5156C24.4323 15.3438 24.4974 14.416 24.5625 13.7324C24.6602 13.0488 24.7904 12.1699 24.9531 11.0957C25.1159 9.98893 25.3275 9.11003 25.5879 8.45898C25.8483 7.77539 26.1413 7.01042 26.4668 6.16406C26.8249 5.31771 27.2643 4.63411 27.7852 4.11328C28.306 3.59245 28.8757 3.10417 29.4941 2.64844C30.1126 2.16016 30.8451 1.80208 31.6914 1.57422C32.5378 1.34635 33.4655 1.23242 34.4746 1.23242C36.4928 1.23242 38.2507 1.63932 39.748 2.45312C41.2454 3.23438 42.4173 4.22721 43.2637 5.43164C44.11 6.63607 44.7773 8.11719 45.2656 9.875C45.7865 11.6328 46.112 13.3092 46.2422 14.9043C46.4049 16.4993 46.4863 18.2572 46.4863 20.1777C46.4863 21.4798 46.4538 22.6517 46.3887 23.6934C46.3561 24.735 46.2585 25.9232 46.0957 27.2578C45.9655 28.5599 45.7539 29.7155 45.4609 30.7246C45.2005 31.7337 44.8262 32.7591 44.3379 33.8008C43.8496 34.8099 43.2637 35.6562 42.5801 36.3398C41.929 36.9909 41.099 37.528 40.0898 37.9512C39.0807 38.3743 37.9577 38.5859 36.7207 38.5859C34.7025 38.5859 32.9609 38.3418 31.4961 37.8535C30.0638 37.3652 28.8757 36.6816 27.9316 35.8027C27.0202 34.9238 26.2878 33.7682 25.7344 32.3359C25.2135 30.9036 24.8392 29.3411 24.6113 27.6484C24.416 25.9557 24.3184 23.9538 24.3184 21.6426ZM42.9707 22.0332C42.9707 20.4382 42.8405 18.778 42.5801 17.0527C42.3522 15.3275 41.9453 13.472 41.3594 11.4863C40.806 9.50065 39.9108 7.88932 38.6738 6.65234C37.4368 5.38281 35.9557 4.74805 34.2305 4.74805C32.9284 4.74805 31.7728 5.62695 30.7637 7.38477C29.7871 9.11003 29.0872 11.0632 28.6641 13.2441C28.2409 15.3926 28.0293 17.4271 28.0293 19.3477C28.0293 20.6823 28.0293 21.7077 28.0293 22.4238C28.0618 23.1074 28.127 24.1003 28.2246 25.4023C28.3223 26.6719 28.4525 27.681 28.6152 28.4297C28.8105 29.1784 29.1035 30.041 29.4941 31.0176C29.8848 31.9941 30.3405 32.7591 30.8613 33.3125C31.4147 33.8333 32.1146 34.3053 32.9609 34.7285C33.8398 35.1191 34.8164 35.3307 35.8906 35.3633C38.2669 35.2331 40.041 33.8984 41.2129 31.3594C42.3848 28.8203 42.9707 25.7116 42.9707 22.0332ZM50.4414 37.707L50.5879 2.45312C57.8145 2.51823 63.3971 4.3737 67.3359 8.01953C71.2747 11.6328 73.2441 16.9388 73.2441 23.9375C73.2441 26.1836 72.6582 28.2344 71.4863 30.0898C70.3145 31.9453 68.8008 33.4264 66.9453 34.5332C65.1224 35.64 63.1367 36.5026 60.9883 37.1211C58.8724 37.707 56.7728 38 54.6895 38C53.3874 38 51.9714 37.9023 50.4414 37.707ZM54.1035 34.7285H54.9336C56.7891 34.7285 58.5794 34.5169 60.3047 34.0938C62.0299 33.638 63.625 32.9707 65.0898 32.0918C66.5547 31.2129 67.7266 30.0085 68.6055 28.4785C69.4844 26.916 69.9238 25.1257 69.9238 23.1074C69.9238 20.373 69.0938 17.6061 67.4336 14.8066C65.806 11.9746 63.8203 9.69596 61.4766 7.9707C59.1654 6.21289 57.0169 5.33398 55.0312 5.33398C54.6081 5.33398 54.2012 5.38281 53.8105 5.48047C53.8105 7.43359 53.9082 17.1829 54.1035 34.7285ZM93.9473 35.8027L94.4355 38C93.166 38 90.8548 38.0488 87.502 38.1465C84.1816 38.2767 81.7728 38.3418 80.2754 38.3418C77.8665 38.3418 76.2227 38.2279 75.3438 38C75.6693 34.4193 75.8646 28.4297 75.9297 20.0312C75.9948 11.6328 76.2064 5.77344 76.5645 2.45312C77.6712 2.55078 80.6009 2.63216 85.3535 2.69727C90.1387 2.76237 93.2637 2.90885 94.7285 3.13672L95.2656 5.33398C93.8008 5.5944 90.8711 5.90365 86.4766 6.26172C82.082 6.61979 79.7708 6.8151 79.543 6.84766C79.5755 7.59635 79.6406 9.1263 79.7383 11.4375C79.8685 13.7487 79.9499 15.653 79.9824 17.1504C81.0892 17.2806 83.1074 17.4759 86.0371 17.7363C88.9668 17.9642 90.8223 18.1107 91.6035 18.1758L92.0918 20.4219C85.2233 21.0404 81.2031 21.3659 80.0312 21.3984C80.0312 22.8307 79.9987 25.0117 79.9336 27.9414C79.901 30.8385 79.8848 32.9707 79.8848 34.3379C87.3392 35.0215 92.0267 35.5098 93.9473 35.8027ZM98.1953 36.6328L98.8301 2.84375H101.467L117.434 33.166V29.3086C117.434 19.4779 117.613 10.64 117.971 2.79492L120.754 3.33203C121.112 10.3958 121.405 22.0332 121.633 38.2441C120.949 38.5371 120.233 38.6836 119.484 38.6836C118.378 38.6836 117.222 38.3581 116.018 37.707C114.032 34.6471 111.558 30.1712 108.596 24.2793C105.666 18.3874 103.583 14.3509 102.346 12.1699C102.378 14.3835 102.395 18.4199 102.395 24.2793C102.427 30.1387 102.492 34.582 102.59 37.6094C102.297 38.6185 101.727 39.123 100.881 39.123C100.295 39.123 99.7253 38.8789 99.1719 38.3906C98.651 37.9023 98.3255 37.3164 98.1953 36.6328Z" fill="white"/>
</svg>
